<svg width="512" height="512" viewBox="0 0 512 512" fill="none" xmlns="http://www.w3.org/2000/svg">
  <rect width="512" height="512" rx="128" fill="#F4F0E7"/>
  <rect x="56" y="56" width="400" height="400" rx="112" fill="#173D4C"/>
  <circle cx="376" cy="136" r="30" fill="#E38A54"/>
  <path d="M196 166C196 132.863 222.863 106 256 106C289.137 106 316 132.863 316 166V224C316 257.137 289.137 284 256 284C222.863 284 196 257.137 196 224V166Z" fill="#FFF9EF"/>
  <path d="M168 224C168 273.706 206.294 314 256 314C305.706 314 344 273.706 344 224" stroke="#FFF9EF" stroke-width="28" stroke-linecap="round"/>
  <path d="M256 314V378" stroke="#FFF9EF" stroke-width="28" stroke-linecap="round"/>
  <path d="M214 406H298" stroke="#FFF9EF" stroke-width="28" stroke-linecap="round"/>
  <path d="M350 184C367.214 194.226 378.8 212.638 380 234" stroke="#E38A54" stroke-width="20" stroke-linecap="round"/>
  <path d="M373 158C398.92 173.3 416.359 200.907 418 233" stroke="#E38A54" stroke-width="16" stroke-linecap="round" opacity="0.92"/>
  <path d="M162 184C144.786 194.226 133.2 212.638 132 234" stroke="#7AA2AD" stroke-width="18" stroke-linecap="round" opacity="0.68"/>
</svg>
